<?xml version="1.0" standalone="no"?>
<!DOCTYPE svg PUBLIC "-//W3C//DTD SVG 20010904//EN"
 "http://www.w3.org/TR/2001/REC-SVG-20010904/DTD/svg10.dtd">
<svg version="1.0" xmlns="http://www.w3.org/2000/svg"
 width="600.000000pt" height="600.000000pt" viewBox="0 0 600.000000 600.000000"
 preserveAspectRatio="xMidYMid meet">

<g transform="translate(0.000000,600.000000) scale(0.100000,-0.100000)"
fill="#000000" stroke="none">
<path d="M0 3000 l0 -3000 3000 0 3000 0 0 3000 0 3000 -3000 0 -3000 0 0
-3000z m2983 1750 c44 0 57 -3 57 -15 0 -12 16 -15 80 -15 47 0 80 -4 80 -10
0 -5 18 -10 40 -10 22 0 40 5 40 10 0 6 18 10 40 10 22 0 40 -4 40 -10 0 -5
16 -10 35 -10 39 0 84 -19 106 -46 13 -15 14 -15 19 4 5 19 7 19 43 5 20 -8
37 -21 37 -29 0 -10 12 -14 40 -14 22 0 40 -5 40 -11 0 -16 42 -48 63 -49 9 0
17 -4 17 -10 0 -5 18 -10 39 -10 22 0 41 -5 44 -12 2 -7 28 -22 56 -33 48 -18
51 -21 51 -55 0 -25 6 -39 22 -49 16 -10 23 -10 26 -2 5 16 29 14 36 -4 3 -8
22 -22 43 -32 36 -17 37 -20 35 -61 -4 -43 17 -92 38 -92 6 0 10 16 10 35 0
19 4 35 8 35 15 0 31 -22 25 -35 -2 -8 7 -21 21 -30 14 -10 26 -24 26 -31 0
-17 17 -19 22 -2 2 6 12 9 21 5 13 -5 17 -19 17 -56 0 -27 5 -53 10 -56 6 -4
10 6 10 22 1 27 1 27 15 9 8 -11 15 -37 15 -58 0 -34 3 -38 25 -38 19 0 25 -5
25 -21 0 -12 8 -27 17 -34 13 -10 16 -25 14 -59 -2 -41 0 -46 18 -46 18 0 21
-7 22 -42 1 -24 3 -35 6 -25 6 21 12 21 41 -2 19 -17 22 -29 22 -95 0 -68 2
-76 19 -76 16 0 20 -11 26 -80 5 -55 11 -80 20 -80 14 0 21 -64 31 -262 4
-100 3 -118 -10 -118 -19 0 -46 27 -46 46 0 17 -12 18 -27 3 -8 -8 -16 -8 -30
0 -16 11 -15 11 7 6 56 -14 -41 35 -117 59 -91 29 -214 34 -328 12 -131 -26
-132 -26 -147 -9 -19 24 -72 43 -117 43 -37 0 -41 2 -46 33 -4 18 -1 230 5
471 11 446 9 520 -16 530 -20 8 -1651 9 -1664 1 -6 -3 -8 -10 -6 -14 3 -4 0
-13 -6 -21 -8 -12 -9 -12 -4 3 3 9 1 17 -4 17 -19 0 -21 -103 -12 -531 8 -375
7 -447 -4 -466 -14 -23 -18 -23 -199 -23 -207 0 -235 -6 -235 -52 0 -15 -4
-28 -9 -28 -5 0 -11 -171 -13 -407 l-4 -408 -26 -55 c-14 -31 -33 -62 -42 -69
-14 -12 -16 -10 -16 13 0 14 4 26 9 26 5 0 4 11 -2 24 -7 14 -17 21 -28 19
-18 -5 -37 29 -20 35 6 2 11 21 11 41 0 30 -5 40 -26 51 -14 8 -28 26 -31 42
-6 33 -23 37 -30 8 -11 -40 -23 -18 -23 40 0 48 3 60 16 60 14 0 13 5 -5 36
-12 21 -21 54 -22 82 -1 39 -2 42 -8 18 -6 -27 -7 -28 -20 -12 -11 13 -14 41
-12 107 2 76 0 89 -13 89 -12 0 -16 -10 -16 -40 0 -22 -4 -40 -10 -40 -5 0
-10 18 -10 40 0 22 -4 40 -10 40 -5 0 -10 18 -10 40 0 38 2 40 30 40 l30 0 0
80 c0 73 -2 80 -20 80 -17 0 -20 7 -20 40 0 32 4 40 19 40 15 0 19 11 25 61 9
92 7 179 -4 179 -5 0 -10 7 -10 15 0 21 27 19 39 -2 8 -14 10 -9 11 25 0 23 5
42 10 42 6 0 10 38 10 93 0 102 14 143 39 113 10 -11 18 -13 32 -6 15 9 17 18
12 59 -5 45 -3 51 26 81 17 18 31 39 31 46 0 8 6 14 13 14 13 0 21 15 59 108
7 17 16 32 20 32 4 0 17 23 29 50 12 28 25 50 30 50 5 0 9 7 9 15 0 8 9 19 20
25 11 6 27 24 35 40 14 27 21 30 60 30 25 0 45 5 45 11 0 13 53 58 94 78 19
10 31 24 31 35 0 13 14 27 40 40 22 12 40 28 40 36 1 34 35 57 35 23 0 -14 3
-14 23 4 12 11 36 27 52 36 17 8 39 24 49 36 23 25 36 27 36 4 0 -14 3 -14 23
4 35 32 62 43 111 43 45 0 71 15 39 23 -10 2 0 7 24 12 42 7 50 25 12 25 -10
0 -19 5 -19 10 0 6 11 10 25 10 14 0 25 4 25 8 0 11 224 37 238 28 6 -3 25 1
43 9 24 11 53 14 99 10 36 -3 91 -5 123 -5z m200 3 c-13 -2 -33 -2 -45 0 -13
2 -3 4 22 4 25 0 35 -2 23 -4z m622 -178 l40 -14 -42 -1 c-32 0 -43 4 -43 15
0 18 -4 18 45 0z m-97 -895 l2 -520 85 0 85 0 0 -48 c0 -40 -5 -53 -26 -73
-36 -33 -109 -146 -122 -189 -43 -143 -7 -300 96 -420 l35 -41 -17 -77 c-55
-253 -235 -442 -488 -512 -66 -18 -102 -20 -376 -20 l-304 0 -77 -34 c-129
-57 -239 -80 -376 -80 -124 -1 -217 19 -305 64 -99 51 -178 144 -210 248 -19
61 -20 95 -20 623 l0 559 225 0 225 0 0 518 c0 285 2 521 4 523 2 2 355 3 783
2 l778 -2 3 -521z m779 168 c-3 -8 -6 -5 -6 6 -1 11 2 17 5 13 3 -3 4 -12 1
-19z m-3051 -85 c-10 -10 -19 5 -10 18 6 11 8 11 12 0 2 -7 1 -15 -2 -18z
m-136 -443 c0 -22 -4 -40 -10 -40 -5 0 -10 18 -10 40 0 22 5 40 10 40 6 0 10
-18 10 -40z m3386 -23 c3 -13 4 -41 1 -63 l-4 -39 -1 43 c-2 35 -5 42 -22 42
-11 0 -20 6 -20 13 0 34 37 37 46 4z m-3409 -294 c-2 -21 -4 -4 -4 37 0 41 2
58 4 38 2 -21 2 -55 0 -75z m2673 -94 l0 -31 30 26 c38 32 85 41 137 27 49
-13 82 -46 65 -63 -9 -9 -24 -8 -62 6 -64 23 -110 10 -145 -42 -21 -31 -25
-48 -25 -114 0 -66 3 -79 19 -88 50 -26 115 0 146 60 21 40 19 50 -11 50 -21
0 -25 4 -22 23 3 19 10 22 57 25 l54 3 -5 -49 c-4 -40 -1 -54 19 -78 l23 -29
0 146 0 147 25 4 24 5 3 -159 c2 -88 -1 -162 -6 -165 -4 -3 20 -34 55 -69 l63
-64 -32 0 c-18 0 -43 7 -56 15 -21 14 -24 14 -36 0 -7 -8 -20 -15 -30 -15 -14
0 -17 6 -13 23 3 12 10 27 14 33 5 6 -11 29 -41 59 l-49 48 -36 -31 c-42 -38
-72 -47 -125 -38 -38 6 -40 5 -40 -19 0 -24 2 -25 74 -25 62 0 79 4 110 25 42
28 52 30 59 13 8 -22 -12 -47 -53 -68 -32 -16 -59 -20 -140 -20 l-100 0 0 224
c0 238 -2 228 43 235 4 0 7 -13 7 -30z m428 -135 c-3 -146 -3 -149 -25 -152
l-23 -3 0 155 c0 139 2 155 18 159 9 2 20 1 25 -3 4 -4 6 -74 5 -156z m93 156
c5 0 9 -95 9 -225 l0 -225 -25 0 -25 0 0 231 c0 207 2 230 16 225 9 -3 20 -6
25 -6z m-3114 -352 c-2 -13 -4 -3 -4 22 0 25 2 35 4 23 2 -13 2 -33 0 -45z
m103 -218 c0 -49 -12 -52 -28 -7 -16 44 -15 47 8 47 17 0 20 -7 20 -40z m2565
-163 c63 -20 191 -37 227 -30 20 4 26 1 25 -12 -1 -9 8 -24 21 -32 21 -15 22
-14 22 11 0 16 5 26 15 26 11 0 15 -11 15 -40 0 -29 -4 -40 -15 -40 -8 0 -15
-5 -15 -11 0 -18 -60 -69 -81 -69 -15 0 -19 -7 -19 -40 l0 -40 -40 0 c-22 0
-40 -4 -40 -10 0 -5 -9 -10 -20 -10 -11 0 -20 -6 -20 -13 0 -8 -12 -19 -27
-26 -19 -9 -23 -15 -14 -20 9 -6 6 -14 -15 -30 -30 -23 -44 -27 -44 -10 0 17
-45 -15 -45 -32 -1 -33 -35 -55 -35 -22 0 14 -3 14 -22 -4 -34 -29 -96 -63
-119 -63 -12 0 -19 -7 -19 -19 0 -13 -9 -21 -30 -26 -17 -4 -42 -18 -55 -31
-13 -13 -31 -24 -40 -24 -8 0 -15 -7 -15 -15 0 -18 -17 -20 -22 -3 -3 8 -14 3
-32 -15 -30 -30 -46 -34 -46 -12 0 19 -21 19 -46 0 -10 -8 -40 -15 -66 -15
-36 0 -48 -4 -48 -15 0 -11 -11 -15 -40 -15 -30 0 -40 -4 -40 -16 0 -14 -10
-15 -80 -9 -70 6 -80 5 -80 -9 0 -14 -17 -16 -120 -16 -92 0 -120 3 -120 13 0
10 -41 16 -165 23 -133 8 -169 14 -182 27 -16 16 -16 17 4 17 12 0 23 -4 25
-8 1 -5 14 -5 28 -1 16 4 19 7 8 8 -14 1 -18 10 -18 41 0 22 4 40 10 40 5 0 9
6 7 13 -1 7 12 13 36 15 29 2 37 7 33 18 -4 11 10 14 77 14 45 0 97 4 115 9
18 6 139 11 267 12 129 1 232 5 230 10 -7 10 32 22 45 14 5 -3 17 -1 27 4 43
24 120 54 141 55 13 1 26 7 30 13 4 6 16 13 27 15 11 2 19 9 18 15 -2 7 6 15
17 18 11 4 17 11 14 17 -4 6 -2 8 3 5 18 -12 129 108 161 173 6 14 16 32 21
40 31 54 42 83 37 96 -3 7 -1 14 4 14 5 0 11 9 15 19 6 19 29 31 50 26 6 -1
33 -9 60 -18z m-1455 -607 c0 -5 -2 -10 -4 -10 -3 0 -8 5 -11 10 -3 6 -1 10 4
10 6 0 11 -4 11 -10z m-65 -60 c3 -5 -1 -10 -9 -10 -9 0 -16 5 -16 10 0 6 4
10 9 10 6 0 13 -4 16 -10z m132 -86 c-3 -3 -12 -4 -19 -1 -8 3 -5 6 6 6 11 1
17 -2 13 -5z m403 -34 c0 -5 -18 -10 -40 -10 -22 0 -40 5 -40 10 0 6 18 10 40
10 22 0 40 -4 40 -10z m2324 -1146 c24 -23 20 -61 -9 -80 -30 -19 -57 -12 -75
21 -27 51 43 101 84 59z m69 -36 c-8 -46 -13 -48 -13 -5 0 21 4 37 10 37 5 0
7 -14 3 -32z m67 -4 c0 -20 -4 -33 -10 -29 -5 3 -7 12 -3 20 3 8 1 15 -5 15
-6 0 -12 -5 -14 -12 -2 -6 -10 -8 -16 -4 -17 10 -15 27 2 20 7 -3 16 2 19 10
11 29 27 17 27 -20z m243 29 c2 -5 7 -21 10 -38 4 -16 4 -24 1 -17 -3 6 -14
12 -25 12 -10 0 -19 -6 -20 -12 0 -8 -2 -9 -5 -2 -11 27 26 80 39 57z m44 -45
c-2 -13 -4 -5 -4 17 -1 22 1 32 4 23 2 -10 2 -28 0 -40z m-195 27 c0 -5 -5
-11 -11 -13 -6 -2 -11 4 -11 13 0 9 5 15 11 13 6 -2 11 -8 11 -13z m-67 -5
c-3 -5 -1 -10 5 -10 6 0 9 -4 6 -9 -4 -5 0 -12 6 -14 8 -4 7 -6 -4 -6 -9 -1
-20 4 -23 9 -7 12 0 40 10 40 4 0 3 -4 0 -10z m33 -15 c-3 -3 -9 2 -12 12 -6
14 -5 15 5 6 7 -7 10 -15 7 -18z m102 0 c0 -18 -5 -25 -20 -25 -25 0 -27 30
-2 31 14 0 14 2 -3 9 -19 8 -19 9 3 9 17 1 22 -5 22 -24z m-50 -21 c0 -2 -7
-4 -15 -4 -8 0 -15 4 -15 10 0 5 7 7 15 4 8 -4 15 -8 15 -10z"/>
<path d="M2800 4740 c0 -5 18 -10 40 -10 22 0 40 5 40 10 0 6 -18 10 -40 10
-22 0 -40 -4 -40 -10z"/>
<path d="M2560 4710 c0 -6 60 -10 160 -10 100 0 160 4 160 10 0 6 -60 10 -160
10 -100 0 -160 -4 -160 -10z"/>
<path d="M3840 4470 c0 -5 18 -10 40 -10 22 0 40 5 40 10 0 6 -18 10 -40 10
-22 0 -40 -4 -40 -10z"/>
<path d="M1760 4230 c0 -5 4 -10 9 -10 6 0 13 5 16 10 3 6 -1 10 -9 10 -9 0
-16 -4 -16 -10z"/>
<path d="M2270 4074 c0 -7 20 -27 44 -45 84 -65 150 -175 184 -308 15 -58 17
-134 17 -646 0 -804 -6 -838 -160 -837 -151 0 -264 109 -360 347 l-16 40 -30
-35 c-20 -24 -43 -79 -73 -175 -57 -178 -70 -247 -64 -338 6 -86 30 -138 87
-190 89 -81 196 -112 351 -104 205 11 403 98 600 263 171 144 286 326 346 549
27 100 27 102 34 565 5 295 12 489 20 530 16 89 80 217 132 266 24 21 33 28
21 14 -14 -16 -19 -30 -14 -39 6 -10 10 -10 16 -1 14 23 157 130 166 125 5 -4
9 2 9 12 0 17 -30 18 -655 18 -483 0 -655 -3 -655 -11z m1146 -42 c-2 -1 -40
-9 -85 -17 -139 -24 -212 -69 -256 -156 -44 -87 -47 -115 -55 -624 -8 -534
-12 -569 -69 -692 -17 -35 -45 -81 -63 -103 -36 -44 -133 -114 -211 -151 -38
-19 -56 -36 -85 -84 -115 -190 -333 -315 -527 -303 -82 6 -128 26 -156 71 -28
44 -21 130 18 217 27 62 28 71 26 205 l-1 140 22 -72 c29 -90 55 -131 117
-187 71 -64 143 -90 249 -91 70 0 93 4 134 24 95 47 156 135 198 289 21 74 22
102 26 641 3 492 1 573 -13 636 -27 125 -89 194 -205 231 -30 9 -64 21 -75 25
-11 5 213 7 497 6 284 -1 515 -3 514 -5z"/>
<path d="M3300 2508 c0 -7 9 -26 19 -41 19 -30 18 -66 -3 -68 -6 -1 -45 -1
-86 0 l-75 2 30 -28 c17 -15 43 -38 59 -50 l28 -23 -30 -64 c-17 -35 -28 -67
-25 -69 2 -3 34 12 71 33 62 35 69 36 97 25 71 -30 165 -63 165 -58 0 4 -11
30 -26 60 -14 30 -22 62 -19 71 3 9 28 33 55 52 28 19 50 39 50 44 0 4 -34 6
-76 4 l-76 -4 5 63 c4 35 3 63 -1 63 -3 0 -16 -12 -29 -27 l-23 -28 -6 23 c-9
31 -21 27 -29 -9 l-7 -31 -18 28 c-22 33 -50 51 -50 32z m100 -70 c0 -18 -2
-20 -9 -8 -6 8 -7 18 -5 22 9 14 14 9 14 -14z m13 -19 c20 20 30 12 24 -19
l-6 -30 61 0 62 0 -35 -26 c-19 -14 -33 -32 -31 -39 2 -10 -3 -13 -13 -9 -20
8 -19 4 12 -52 24 -42 25 -47 7 -40 -10 5 -39 15 -64 22 -25 8 -51 22 -58 32
-9 11 -15 13 -20 6 -6 -10 -85 -54 -96 -54 -3 0 6 21 20 47 l25 48 -33 27
c-18 15 -36 28 -40 28 -5 0 -8 3 -8 8 0 4 26 6 58 4 56 -3 57 -3 69 28 11 28
14 30 33 20 16 -9 25 -9 33 -1z"/>
<path d="M3455 2260 c3 -5 8 -10 11 -10 2 0 4 5 4 10 0 6 -5 10 -11 10 -5 0
-7 -4 -4 -10z"/>
<path d="M5306 257 c-36 -26 4 -84 42 -61 23 15 26 38 7 58 -20 19 -26 20 -49
3z"/>
<path d="M5720 236 c0 -9 5 -16 10 -16 6 0 10 4 10 9 0 6 -4 13 -10 16 -5 3
-10 -1 -10 -9z"/>
</g>
</svg>
